<?xml version="1.0" encoding="UTF-8"?>
<!DOCTYPE svg PUBLIC "-//W3C//DTD SVG 1.1//EN" "http://www.w3.org/Graphics/SVG/1.1/DTD/svg11.dtd"><svg xmlns="http://www.w3.org/2000/svg" xmlns:xlink="http://www.w3.org/1999/xlink" contentStyleType="text/css" height="1489px" preserveAspectRatio="none" style="width:1490px;height:1489px;background:#FFFFFF;" version="1.1" viewBox="0 0 1490 1489" width="1490px" zoomAndPan="magnify"><defs/><g><rect height="32.29" style="stroke:#00000000;stroke-width:1.0;fill:none;" width="148" x="672.25" y="10"/><text fill="#000000" font-family="sans-serif" font-size="14" font-weight="bold" lengthAdjust="spacing" textLength="132" x="680.25" y="31.3369">Sequence Diagram</text><rect fill="#FFFFFF" height="341.9375" style="stroke:#FFFFFF;stroke-width:1.0;" width="10" x="259.5" y="167.7065"/><line style="stroke:#181818;stroke-width:1.0;" x1="259.5" x2="259.5" y1="167.7065" y2="509.644"/><line style="stroke:#181818;stroke-width:1.0;" x1="269.5" x2="269.5" y1="167.7065" y2="509.644"/><line style="stroke:#181818;stroke-width:1.0;" x1="259.5" x2="269.5" y1="167.7065" y2="167.7065"/><rect fill="#FFFFFF" height="41.1265" style="stroke:#FFFFFF;stroke-width:1.0;" width="10" x="259.5" y="543.644"/><line style="stroke:#181818;stroke-width:1.0;" x1="259.5" x2="259.5" y1="543.644" y2="584.7705"/><line style="stroke:#181818;stroke-width:1.0;" x1="269.5" x2="269.5" y1="543.644" y2="584.7705"/><rect fill="#FFFFFF" height="97.3794" style="stroke:#FFFFFF;stroke-width:1.0;" width="10" x="259.5" y="618.7705"/><line style="stroke:#181818;stroke-width:1.0;" x1="259.5" x2="259.5" y1="618.7705" y2="716.1499"/><line style="stroke:#181818;stroke-width:1.0;" x1="269.5" x2="269.5" y1="618.7705" y2="716.1499"/><line style="stroke:#181818;stroke-width:1.0;" x1="259.5" x2="269.5" y1="716.1499" y2="716.1499"/><rect fill="#FFFFFF" height="43.1265" style="stroke:#FFFFFF;stroke-width:1.0;" width="10" x="259.5" y="766.4028"/><line style="stroke:#181818;stroke-width:1.0;" x1="259.5" x2="259.5" y1="766.4028" y2="809.5293"/><line style="stroke:#181818;stroke-width:1.0;" x1="269.5" x2="269.5" y1="766.4028" y2="809.5293"/><line style="stroke:#181818;stroke-width:1.0;" x1="259.5" x2="269.5" y1="766.4028" y2="766.4028"/><rect fill="#FFFFFF" height="41.1265" style="stroke:#FFFFFF;stroke-width:1.0;" width="10" x="259.5" y="843.5293"/><line style="stroke:#181818;stroke-width:1.0;" x1="259.5" x2="259.5" y1="843.5293" y2="884.6558"/><line style="stroke:#181818;stroke-width:1.0;" x1="269.5" x2="269.5" y1="843.5293" y2="884.6558"/><rect fill="#FFFFFF" height="412.5176" style="stroke:#FFFFFF;stroke-width:1.0;" width="10" x="259.5" y="918.6558"/><line style="stroke:#181818;stroke-width:1.0;" x1="259.5" x2="259.5" y1="918.6558" y2="1331.1733"/><line style="stroke:#181818;stroke-width:1.0;" x1="269.5" x2="269.5" y1="918.6558" y2="1331.1733"/><line style="stroke:#181818;stroke-width:1.0;" x1="259.5" x2="269.5" y1="1331.1733" y2="1331.1733"/><rect fill="#FFFFFF" height="165.3052" style="stroke:#181818;stroke-width:1.0;" width="10" x="741" y="237.9595"/><rect fill="#FFFFFF" height="216.7588" style="stroke:#181818;stroke-width:1.0;" width="10" x="741" y="1031.1616"/><rect fill="#FFFFFF" height="142.1787" style="stroke:#181818;stroke-width:1.0;" width="10" x="741" y="1331.1733"/><rect fill="#FFFFFF" height="8" style="stroke:#FFFFFF;stroke-width:1.0;" width="10" x="1092" y="501.644"/><line style="stroke:#181818;stroke-width:1.0;" x1="1092" x2="1092" y1="501.644" y2="509.644"/><line style="stroke:#181818;stroke-width:1.0;" x1="1102" x2="1102" y1="501.644" y2="509.644"/><line style="stroke:#181818;stroke-width:1.0;" x1="1092" x2="1102" y1="501.644" y2="501.644"/><rect fill="#FFFFFF" height="41.1265" style="stroke:#FFFFFF;stroke-width:1.0;" width="10" x="1092" y="543.644"/><line style="stroke:#181818;stroke-width:1.0;" x1="1092" x2="1092" y1="543.644" y2="584.7705"/><line style="stroke:#181818;stroke-width:1.0;" x1="1102" x2="1102" y1="543.644" y2="584.7705"/><rect fill="#FFFFFF" height="27.1265" style="stroke:#FFFFFF;stroke-width:1.0;" width="10" x="1092" y="618.7705"/><line style="stroke:#181818;stroke-width:1.0;" x1="1092" x2="1092" y1="618.7705" y2="645.897"/><line style="stroke:#181818;stroke-width:1.0;" x1="1102" x2="1102" y1="618.7705" y2="645.897"/><line style="stroke:#181818;stroke-width:1.0;" x1="1092" x2="1102" y1="645.897" y2="645.897"/><rect fill="#FFFFFF" height="35.1265" style="stroke:#181818;stroke-width:1.0;" width="10" x="1092" y="1129.541"/><rect fill="#FFFFFF" height="35.1265" style="stroke:#181818;stroke-width:1.0;" width="10" x="1257.5" y="681.0234"/><rect fill="#FFFFFF" height="8" style="stroke:#FFFFFF;stroke-width:1.0;" width="10" x="1257.5" y="801.5293"/><line style="stroke:#181818;stroke-width:1.0;" x1="1257.5" x2="1257.5" y1="801.5293" y2="809.5293"/><line style="stroke:#181818;stroke-width:1.0;" x1="1267.5" x2="1267.5" y1="801.5293" y2="809.5293"/><line style="stroke:#181818;stroke-width:1.0;" x1="1257.5" x2="1267.5" y1="801.5293" y2="801.5293"/><rect fill="#FFFFFF" height="41.1265" style="stroke:#FFFFFF;stroke-width:1.0;" width="10" x="1257.5" y="843.5293"/><line style="stroke:#181818;stroke-width:1.0;" x1="1257.5" x2="1257.5" y1="843.5293" y2="884.6558"/><line style="stroke:#181818;stroke-width:1.0;" x1="1267.5" x2="1267.5" y1="843.5293" y2="884.6558"/><rect fill="#FFFFFF" height="27.1265" style="stroke:#FFFFFF;stroke-width:1.0;" width="10" x="1257.5" y="918.6558"/><line style="stroke:#181818;stroke-width:1.0;" x1="1257.5" x2="1257.5" y1="918.6558" y2="945.7822"/><line style="stroke:#181818;stroke-width:1.0;" x1="1267.5" x2="1267.5" y1="918.6558" y2="945.7822"/><line style="stroke:#181818;stroke-width:1.0;" x1="1257.5" x2="1267.5" y1="945.7822" y2="945.7822"/><rect fill="#FFFFFF" height="35.1265" style="stroke:#181818;stroke-width:1.0;" width="10" x="1422" y="1422.2256"/><rect height="1116.1396" style="stroke:#000000;stroke-width:1.5;fill:none;" width="1473.5" x="10" y="349.2124"/><line style="stroke:#181818;stroke-width:0.5;fill:none;stroke-dasharray:5.0,5.0;" x1="41" x2="41" y1="130.5801" y2="509.644"/><line style="stroke:#A80036;stroke-width:1.0;fill:none;stroke-dasharray:1.0,4.0;" x1="41" x2="41" y1="509.644" y2="543.644"/><line style="stroke:#181818;stroke-width:0.5;fill:none;stroke-dasharray:5.0,5.0;" x1="41" x2="41" y1="543.644" y2="584.7705"/><line style="stroke:#A80036;stroke-width:1.0;fill:none;stroke-dasharray:1.0,4.0;" x1="41" x2="41" y1="584.7705" y2="618.7705"/><line style="stroke:#181818;stroke-width:0.5;fill:none;stroke-dasharray:5.0,5.0;" x1="41" x2="41" y1="618.7705" y2="809.5293"/><line style="stroke:#A80036;stroke-width:1.0;fill:none;stroke-dasharray:1.0,4.0;" x1="41" x2="41" y1="809.5293" y2="843.5293"/><line style="stroke:#181818;stroke-width:0.5;fill:none;stroke-dasharray:5.0,5.0;" x1="41" x2="41" y1="843.5293" y2="884.6558"/><line style="stroke:#A80036;stroke-width:1.0;fill:none;stroke-dasharray:1.0,4.0;" x1="41" x2="41" y1="884.6558" y2="918.6558"/><line style="stroke:#181818;stroke-width:0.5;fill:none;stroke-dasharray:5.0,5.0;" x1="41" x2="41" y1="918.6558" y2="1482.3521"/><line style="stroke:#181818;stroke-width:0.5;fill:none;stroke-dasharray:5.0,5.0;" x1="264" x2="264" y1="130.5801" y2="509.644"/><line style="stroke:#A80036;stroke-width:1.0;fill:none;stroke-dasharray:1.0,4.0;" x1="264" x2="264" y1="509.644" y2="543.644"/><line style="stroke:#181818;stroke-width:0.5;fill:none;stroke-dasharray:5.0,5.0;" x1="264" x2="264" y1="543.644" y2="584.7705"/><line style="stroke:#A80036;stroke-width:1.0;fill:none;stroke-dasharray:1.0,4.0;" x1="264" x2="264" y1="584.7705" y2="618.7705"/><line style="stroke:#181818;stroke-width:0.5;fill:none;stroke-dasharray:5.0,5.0;" x1="264" x2="264" y1="618.7705" y2="809.5293"/><line style="stroke:#A80036;stroke-width:1.0;fill:none;stroke-dasharray:1.0,4.0;" x1="264" x2="264" y1="809.5293" y2="843.5293"/><line style="stroke:#181818;stroke-width:0.5;fill:none;stroke-dasharray:5.0,5.0;" x1="264" x2="264" y1="843.5293" y2="884.6558"/><line style="stroke:#A80036;stroke-width:1.0;fill:none;stroke-dasharray:1.0,4.0;" x1="264" x2="264" y1="884.6558" y2="918.6558"/><line style="stroke:#181818;stroke-width:0.5;fill:none;stroke-dasharray:5.0,5.0;" x1="264" x2="264" y1="918.6558" y2="1482.3521"/><line style="stroke:#181818;stroke-width:0.5;fill:none;stroke-dasharray:5.0,5.0;" x1="597.5" x2="597.5" y1="130.5801" y2="509.644"/><line style="stroke:#A80036;stroke-width:1.0;fill:none;stroke-dasharray:1.0,4.0;" x1="597.5" x2="597.5" y1="509.644" y2="543.644"/><line style="stroke:#181818;stroke-width:0.5;fill:none;stroke-dasharray:5.0,5.0;" x1="597.5" x2="597.5" y1="543.644" y2="584.7705"/><line style="stroke:#A80036;stroke-width:1.0;fill:none;stroke-dasharray:1.0,4.0;" x1="597.5" x2="597.5" y1="584.7705" y2="618.7705"/><line style="stroke:#181818;stroke-width:0.5;fill:none;stroke-dasharray:5.0,5.0;" x1="597.5" x2="597.5" y1="618.7705" y2="809.5293"/><line style="stroke:#A80036;stroke-width:1.0;fill:none;stroke-dasharray:1.0,4.0;" x1="597.5" x2="597.5" y1="809.5293" y2="843.5293"/><line style="stroke:#181818;stroke-width:0.5;fill:none;stroke-dasharray:5.0,5.0;" x1="597.5" x2="597.5" y1="843.5293" y2="884.6558"/><line style="stroke:#A80036;stroke-width:1.0;fill:none;stroke-dasharray:1.0,4.0;" x1="597.5" x2="597.5" y1="884.6558" y2="918.6558"/><line style="stroke:#181818;stroke-width:0.5;fill:none;stroke-dasharray:5.0,5.0;" x1="597.5" x2="597.5" y1="918.6558" y2="1482.3521"/><line style="stroke:#181818;stroke-width:0.5;fill:none;stroke-dasharray:5.0,5.0;" x1="745.5" x2="745.5" y1="130.5801" y2="509.644"/><line style="stroke:#A80036;stroke-width:1.0;fill:none;stroke-dasharray:1.0,4.0;" x1="745.5" x2="745.5" y1="509.644" y2="543.644"/><line style="stroke:#181818;stroke-width:0.5;fill:none;stroke-dasharray:5.0,5.0;" x1="745.5" x2="745.5" y1="543.644" y2="584.7705"/><line style="stroke:#A80036;stroke-width:1.0;fill:none;stroke-dasharray:1.0,4.0;" x1="745.5" x2="745.5" y1="584.7705" y2="618.7705"/><line style="stroke:#181818;stroke-width:0.5;fill:none;stroke-dasharray:5.0,5.0;" x1="745.5" x2="745.5" y1="618.7705" y2="809.5293"/><line style="stroke:#A80036;stroke-width:1.0;fill:none;stroke-dasharray:1.0,4.0;" x1="745.5" x2="745.5" y1="809.5293" y2="843.5293"/><line style="stroke:#181818;stroke-width:0.5;fill:none;stroke-dasharray:5.0,5.0;" x1="745.5" x2="745.5" y1="843.5293" y2="884.6558"/><line style="stroke:#A80036;stroke-width:1.0;fill:none;stroke-dasharray:1.0,4.0;" x1="745.5" x2="745.5" y1="884.6558" y2="918.6558"/><line style="stroke:#181818;stroke-width:0.5;fill:none;stroke-dasharray:5.0,5.0;" x1="745.5" x2="745.5" y1="918.6558" y2="1482.3521"/><line style="stroke:#181818;stroke-width:0.5;fill:none;stroke-dasharray:5.0,5.0;" x1="1096.5" x2="1096.5" y1="130.5801" y2="509.644"/><line style="stroke:#A80036;stroke-width:1.0;fill:none;stroke-dasharray:1.0,4.0;" x1="1096.5" x2="1096.5" y1="509.644" y2="543.644"/><line style="stroke:#181818;stroke-width:0.5;fill:none;stroke-dasharray:5.0,5.0;" x1="1096.5" x2="1096.5" y1="543.644" y2="584.7705"/><line style="stroke:#A80036;stroke-width:1.0;fill:none;stroke-dasharray:1.0,4.0;" x1="1096.5" x2="1096.5" y1="584.7705" y2="618.7705"/><line style="stroke:#181818;stroke-width:0.5;fill:none;stroke-dasharray:5.0,5.0;" x1="1096.5" x2="1096.5" y1="618.7705" y2="809.5293"/><line style="stroke:#A80036;stroke-width:1.0;fill:none;stroke-dasharray:1.0,4.0;" x1="1096.5" x2="1096.5" y1="809.5293" y2="843.5293"/><line style="stroke:#181818;stroke-width:0.5;fill:none;stroke-dasharray:5.0,5.0;" x1="1096.5" x2="1096.5" y1="843.5293" y2="884.6558"/><line style="stroke:#A80036;stroke-width:1.0;fill:none;stroke-dasharray:1.0,4.0;" x1="1096.5" x2="1096.5" y1="884.6558" y2="918.6558"/><line style="stroke:#181818;stroke-width:0.5;fill:none;stroke-dasharray:5.0,5.0;" x1="1096.5" x2="1096.5" y1="918.6558" y2="1482.3521"/><line style="stroke:#181818;stroke-width:0.5;fill:none;stroke-dasharray:5.0,5.0;" x1="1262.5" x2="1262.5" y1="130.5801" y2="509.644"/><line style="stroke:#A80036;stroke-width:1.0;fill:none;stroke-dasharray:1.0,4.0;" x1="1262.5" x2="1262.5" y1="509.644" y2="543.644"/><line style="stroke:#181818;stroke-width:0.5;fill:none;stroke-dasharray:5.0,5.0;" x1="1262.5" x2="1262.5" y1="543.644" y2="584.7705"/><line style="stroke:#A80036;stroke-width:1.0;fill:none;stroke-dasharray:1.0,4.0;" x1="1262.5" x2="1262.5" y1="584.7705" y2="618.7705"/><line style="stroke:#181818;stroke-width:0.5;fill:none;stroke-dasharray:5.0,5.0;" x1="1262.5" x2="1262.5" y1="618.7705" y2="809.5293"/><line style="stroke:#A80036;stroke-width:1.0;fill:none;stroke-dasharray:1.0,4.0;" x1="1262.5" x2="1262.5" y1="809.5293" y2="843.5293"/><line style="stroke:#181818;stroke-width:0.5;fill:none;stroke-dasharray:5.0,5.0;" x1="1262.5" x2="1262.5" y1="843.5293" y2="884.6558"/><line style="stroke:#A80036;stroke-width:1.0;fill:none;stroke-dasharray:1.0,4.0;" x1="1262.5" x2="1262.5" y1="884.6558" y2="918.6558"/><line style="stroke:#181818;stroke-width:0.5;fill:none;stroke-dasharray:5.0,5.0;" x1="1262.5" x2="1262.5" y1="918.6558" y2="1482.3521"/><line style="stroke:#181818;stroke-width:0.5;fill:none;stroke-dasharray:5.0,5.0;" x1="1426.5" x2="1426.5" y1="130.5801" y2="509.644"/><line style="stroke:#A80036;stroke-width:1.0;fill:none;stroke-dasharray:1.0,4.0;" x1="1426.5" x2="1426.5" y1="509.644" y2="543.644"/><line style="stroke:#181818;stroke-width:0.5;fill:none;stroke-dasharray:5.0,5.0;" x1="1426.5" x2="1426.5" y1="543.644" y2="584.7705"/><line style="stroke:#A80036;stroke-width:1.0;fill:none;stroke-dasharray:1.0,4.0;" x1="1426.5" x2="1426.5" y1="584.7705" y2="618.7705"/><line style="stroke:#181818;stroke-width:0.5;fill:none;stroke-dasharray:5.0,5.0;" x1="1426.5" x2="1426.5" y1="618.7705" y2="809.5293"/><line style="stroke:#A80036;stroke-width:1.0;fill:none;stroke-dasharray:1.0,4.0;" x1="1426.5" x2="1426.5" y1="809.5293" y2="843.5293"/><line style="stroke:#181818;stroke-width:0.5;fill:none;stroke-dasharray:5.0,5.0;" x1="1426.5" x2="1426.5" y1="843.5293" y2="884.6558"/><line style="stroke:#A80036;stroke-width:1.0;fill:none;stroke-dasharray:1.0,4.0;" x1="1426.5" x2="1426.5" y1="884.6558" y2="918.6558"/><line style="stroke:#181818;stroke-width:0.5;fill:none;stroke-dasharray:5.0,5.0;" x1="1426.5" x2="1426.5" y1="918.6558" y2="1482.3521"/><text fill="#000000" font-family="sans-serif" font-size="14" lengthAdjust="spacing" textLength="31" x="23" y="124.5928">User</text><ellipse cx="41.5" cy="56.79" fill="#E2E2F0" rx="8" ry="8" style="stroke:#181818;stroke-width:0.5;"/><path d="M41.5,64.79 L41.5,91.79 M28.5,72.79 L54.5,72.79 M41.5,91.79 L28.5,106.79 M41.5,91.79 L54.5,106.79 " fill="none" style="stroke:#181818;stroke-width:0.5;"/><rect fill="#E2E2F0" height="36.29" rx="2.5" ry="2.5" style="stroke:#181818;stroke-width:0.5;" width="75" x="227" y="93.29"/><text fill="#000000" font-family="sans-serif" font-size="14" lengthAdjust="spacing" textLength="55" x="237" y="116.5928">Browser</text><rect fill="#E2E2F0" height="36.29" rx="2.5" ry="2.5" style="stroke:#181818;stroke-width:0.5;" width="98" x="548.5" y="93.29"/><text fill="#000000" font-family="sans-serif" font-size="14" lengthAdjust="spacing" textLength="78" x="558.5" y="116.5928">CloudFront</text><rect fill="#E2E2F0" height="52.5801" rx="2.5" ry="2.5" style="stroke:#181818;stroke-width:0.5;" width="139" x="676.5" y="77"/><text fill="#000000" font-family="sans-serif" font-size="14" lengthAdjust="spacing" textLength="100" x="694" y="100.3027">Lambda@Edge</text><text fill="#000000" font-family="sans-serif" font-size="14" lengthAdjust="spacing" textLength="115" x="690.5" y="116.5928">(Viewer Request)</text><rect fill="#E2E2F0" height="36.29" rx="2.5" ry="2.5" style="stroke:#181818;stroke-width:0.5;" width="75" x="1059.5" y="93.29"/><text fill="#000000" font-family="sans-serif" font-size="14" lengthAdjust="spacing" textLength="55" x="1069.5" y="116.5928">Cognito</text><rect fill="#E2E2F0" height="52.5801" rx="2.5" ry="2.5" style="stroke:#181818;stroke-width:0.5;" width="196" x="1164.5" y="77"/><text fill="#000000" font-family="sans-serif" font-size="14" lengthAdjust="spacing" textLength="172" x="1174.5" y="100.3027">IAM Identity Center (SSO)</text><text fill="#000000" font-family="sans-serif" font-size="14" lengthAdjust="spacing" textLength="47" x="1241" y="116.5928">(SAML)</text><rect fill="#E2E2F0" height="36.29" rx="2.5" ry="2.5" style="stroke:#181818;stroke-width:0.5;" width="73" x="1390.5" y="93.29"/><text fill="#000000" font-family="sans-serif" font-size="14" lengthAdjust="spacing" textLength="53" x="1400.5" y="116.5928">(Origin)</text><rect fill="#FFFFFF" height="341.9375" style="stroke:#FFFFFF;stroke-width:1.0;" width="10" x="259.5" y="167.7065"/><line style="stroke:#181818;stroke-width:1.0;" x1="259.5" x2="259.5" y1="167.7065" y2="509.644"/><line style="stroke:#181818;stroke-width:1.0;" x1="269.5" x2="269.5" y1="167.7065" y2="509.644"/><line style="stroke:#181818;stroke-width:1.0;" x1="259.5" x2="269.5" y1="167.7065" y2="167.7065"/><rect fill="#FFFFFF" height="41.1265" style="stroke:#FFFFFF;stroke-width:1.0;" width="10" x="259.5" y="543.644"/><line style="stroke:#181818;stroke-width:1.0;" x1="259.5" x2="259.5" y1="543.644" y2="584.7705"/><line style="stroke:#181818;stroke-width:1.0;" x1="269.5" x2="269.5" y1="543.644" y2="584.7705"/><rect fill="#FFFFFF" height="97.3794" style="stroke:#FFFFFF;stroke-width:1.0;" width="10" x="259.5" y="618.7705"/><line style="stroke:#181818;stroke-width:1.0;" x1="259.5" x2="259.5" y1="618.7705" y2="716.1499"/><line style="stroke:#181818;stroke-width:1.0;" x1="269.5" x2="269.5" y1="618.7705" y2="716.1499"/><line style="stroke:#181818;stroke-width:1.0;" x1="259.5" x2="269.5" y1="716.1499" y2="716.1499"/><rect fill="#FFFFFF" height="43.1265" style="stroke:#FFFFFF;stroke-width:1.0;" width="10" x="259.5" y="766.4028"/><line style="stroke:#181818;stroke-width:1.0;" x1="259.5" x2="259.5" y1="766.4028" y2="809.5293"/><line style="stroke:#181818;stroke-width:1.0;" x1="269.5" x2="269.5" y1="766.4028" y2="809.5293"/><line style="stroke:#181818;stroke-width:1.0;" x1="259.5" x2="269.5" y1="766.4028" y2="766.4028"/><rect fill="#FFFFFF" height="41.1265" style="stroke:#FFFFFF;stroke-width:1.0;" width="10" x="259.5" y="843.5293"/><line style="stroke:#181818;stroke-width:1.0;" x1="259.5" x2="259.5" y1="843.5293" y2="884.6558"/><line style="stroke:#181818;stroke-width:1.0;" x1="269.5" x2="269.5" y1="843.5293" y2="884.6558"/><rect fill="#FFFFFF" height="412.5176" style="stroke:#FFFFFF;stroke-width:1.0;" width="10" x="259.5" y="918.6558"/><line style="stroke:#181818;stroke-width:1.0;" x1="259.5" x2="259.5" y1="918.6558" y2="1331.1733"/><line style="stroke:#181818;stroke-width:1.0;" x1="269.5" x2="269.5" y1="918.6558" y2="1331.1733"/><line style="stroke:#181818;stroke-width:1.0;" x1="259.5" x2="269.5" y1="1331.1733" y2="1331.1733"/><rect fill="#FFFFFF" height="165.3052" style="stroke:#181818;stroke-width:1.0;" width="10" x="741" y="237.9595"/><rect fill="#FFFFFF" height="216.7588" style="stroke:#181818;stroke-width:1.0;" width="10" x="741" y="1031.1616"/><rect fill="#FFFFFF" height="142.1787" style="stroke:#181818;stroke-width:1.0;" width="10" x="741" y="1331.1733"/><rect fill="#FFFFFF" height="8" style="stroke:#FFFFFF;stroke-width:1.0;" width="10" x="1092" y="501.644"/><line style="stroke:#181818;stroke-width:1.0;" x1="1092" x2="1092" y1="501.644" y2="509.644"/><line style="stroke:#181818;stroke-width:1.0;" x1="1102" x2="1102" y1="501.644" y2="509.644"/><line style="stroke:#181818;stroke-width:1.0;" x1="1092" x2="1102" y1="501.644" y2="501.644"/><rect fill="#FFFFFF" height="41.1265" style="stroke:#FFFFFF;stroke-width:1.0;" width="10" x="1092" y="543.644"/><line style="stroke:#181818;stroke-width:1.0;" x1="1092" x2="1092" y1="543.644" y2="584.7705"/><line style="stroke:#181818;stroke-width:1.0;" x1="1102" x2="1102" y1="543.644" y2="584.7705"/><rect fill="#FFFFFF" height="27.1265" style="stroke:#FFFFFF;stroke-width:1.0;" width="10" x="1092" y="618.7705"/><line style="stroke:#181818;stroke-width:1.0;" x1="1092" x2="1092" y1="618.7705" y2="645.897"/><line style="stroke:#181818;stroke-width:1.0;" x1="1102" x2="1102" y1="618.7705" y2="645.897"/><line style="stroke:#181818;stroke-width:1.0;" x1="1092" x2="1102" y1="645.897" y2="645.897"/><rect fill="#FFFFFF" height="35.1265" style="stroke:#181818;stroke-width:1.0;" width="10" x="1092" y="1129.541"/><rect fill="#FFFFFF" height="35.1265" style="stroke:#181818;stroke-width:1.0;" width="10" x="1257.5" y="681.0234"/><rect fill="#FFFFFF" height="8" style="stroke:#FFFFFF;stroke-width:1.0;" width="10" x="1257.5" y="801.5293"/><line style="stroke:#181818;stroke-width:1.0;" x1="1257.5" x2="1257.5" y1="801.5293" y2="809.5293"/><line style="stroke:#181818;stroke-width:1.0;" x1="1267.5" x2="1267.5" y1="801.5293" y2="809.5293"/><line style="stroke:#181818;stroke-width:1.0;" x1="1257.5" x2="1267.5" y1="801.5293" y2="801.5293"/><rect fill="#FFFFFF" height="41.1265" style="stroke:#FFFFFF;stroke-width:1.0;" width="10" x="1257.5" y="843.5293"/><line style="stroke:#181818;stroke-width:1.0;" x1="1257.5" x2="1257.5" y1="843.5293" y2="884.6558"/><line style="stroke:#181818;stroke-width:1.0;" x1="1267.5" x2="1267.5" y1="843.5293" y2="884.6558"/><rect fill="#FFFFFF" height="27.1265" style="stroke:#FFFFFF;stroke-width:1.0;" width="10" x="1257.5" y="918.6558"/><line style="stroke:#181818;stroke-width:1.0;" x1="1257.5" x2="1257.5" y1="918.6558" y2="945.7822"/><line style="stroke:#181818;stroke-width:1.0;" x1="1267.5" x2="1267.5" y1="918.6558" y2="945.7822"/><line style="stroke:#181818;stroke-width:1.0;" x1="1257.5" x2="1267.5" y1="945.7822" y2="945.7822"/><rect fill="#FFFFFF" height="35.1265" style="stroke:#181818;stroke-width:1.0;" width="10" x="1422" y="1422.2256"/><polygon fill="#181818" points="247.5,163.7065,257.5,167.7065,247.5,171.7065,251.5,167.7065" style="stroke:#181818;stroke-width:1.0;"/><line style="stroke:#181818;stroke-width:1.0;" x1="41.5" x2="253.5" y1="167.7065" y2="167.7065"/><text fill="#000000" font-family="sans-serif" font-size="13" lengthAdjust="spacing" textLength="42" x="51.5" y="159.9326">access</text><polygon fill="#181818" points="585.5,198.833,595.5,202.833,585.5,206.833,589.5,202.833" style="stroke:#181818;stroke-width:1.0;"/><line style="stroke:#181818;stroke-width:1.0;" x1="269.5" x2="591.5" y1="202.833" y2="202.833"/><text fill="#000000" font-family="sans-serif" font-size="13" lengthAdjust="spacing" textLength="163" x="279.5" y="195.0591">(GET https://&lt;web-app&gt;)</text><polygon fill="#181818" points="729,233.9595,739,237.9595,729,241.9595,733,237.9595" style="stroke:#181818;stroke-width:1.0;"/><line style="stroke:#181818;stroke-width:1.0;" x1="597.5" x2="735" y1="237.9595" y2="237.9595"/><text fill="#000000" font-family="sans-serif" font-size="13" lengthAdjust="spacing" textLength="96" x="607.5" y="230.1855">Viewer Request</text><line style="stroke:#181818;stroke-width:1.0;" x1="751" x2="793" y1="273.0859" y2="273.0859"/><line style="stroke:#181818;stroke-width:1.0;" x1="793" x2="793" y1="273.0859" y2="286.0859"/><line style="stroke:#181818;stroke-width:1.0;" x1="752" x2="793" y1="286.0859" y2="286.0859"/><polygon fill="#181818" points="762,282.0859,752,286.0859,762,290.0859,758,286.0859" style="stroke:#181818;stroke-width:1.0;"/><text fill="#000000" font-family="sans-serif" font-size="13" lengthAdjust="spacing" textLength="174" x="761" y="265.312">Parse ID Token from cookie</text><line style="stroke:#181818;stroke-width:1.0;" x1="751" x2="793" y1="321.2124" y2="321.2124"/><line style="stroke:#181818;stroke-width:1.0;" x1="793" x2="793" y1="321.2124" y2="334.2124"/><line style="stroke:#181818;stroke-width:1.0;" x1="752" x2="793" y1="334.2124" y2="334.2124"/><polygon fill="#181818" points="762,330.2124,752,334.2124,762,338.2124,758,334.2124" style="stroke:#181818;stroke-width:1.0;"/><text fill="#000000" font-family="sans-serif" font-size="13" lengthAdjust="spacing" textLength="217" x="761" y="313.4385">Parse Auth Code from query string</text><path d="M10,349.2124 L78,349.2124 L78,362.3389 L68,372.3389 L10,372.3389 L10,349.2124 " fill="#EEEEEE" style="stroke:#000000;stroke-width:1.5;"/><rect fill="none" height="1116.1396" style="stroke:#000000;stroke-width:1.5;" width="1473.5" x="10" y="349.2124"/><text fill="#000000" font-family="sans-serif" font-size="13" font-weight="bold" lengthAdjust="spacing" textLength="17" x="28" y="365.5967">alt</text><text fill="#000000" font-family="sans-serif" font-size="11" font-weight="bold" lengthAdjust="spacing" textLength="277" x="96" y="364.6914">[(Invalid or no "ID Token") and (no "Auth Code")]</text><polygon fill="#181818" points="280.5,399.2646,270.5,403.2646,280.5,407.2646,276.5,403.2646" style="stroke:#181818;stroke-width:1.0;"/><line style="stroke:#181818;stroke-width:1.0;" x1="274.5" x2="745" y1="403.2646" y2="403.2646"/><text fill="#000000" font-family="sans-serif" font-size="13" lengthAdjust="spacing" textLength="250" x="289.5" y="395.4907">302 - To redirect to Authorize Endpoint</text><line style="stroke:#181818;stroke-width:1.0;" x1="269.5" x2="311.5" y1="438.3911" y2="438.3911"/><line style="stroke:#181818;stroke-width:1.0;" x1="311.5" x2="311.5" y1="438.3911" y2="451.3911"/><line style="stroke:#181818;stroke-width:1.0;" x1="270.5" x2="311.5" y1="451.3911" y2="451.3911"/><polygon fill="#181818" points="280.5,447.3911,270.5,451.3911,280.5,455.3911,276.5,451.3911" style="stroke:#181818;stroke-width:1.0;"/><text fill="#000000" font-family="sans-serif" font-size="13" lengthAdjust="spacing" textLength="123" x="279.5" y="430.6172">Set nonce in cookie</text><polygon fill="#181818" points="1080,497.644,1090,501.644,1080,505.644,1084,501.644" style="stroke:#181818;stroke-width:1.0;"/><line style="stroke:#181818;stroke-width:1.0;" x1="269.5" x2="1086" y1="501.644" y2="501.644"/><text fill="#000000" font-family="sans-serif" font-size="13" lengthAdjust="spacing" textLength="320" x="279.5" y="478.7437">Redirect to Cognito Authorize Endpoint with nonce</text><text fill="#000000" font-family="sans-serif" font-size="13" lengthAdjust="spacing" textLength="325" x="283.5" y="493.8701">(GET https://&lt;Cognito domain&gt;/oauth2/authorize)</text><path d="M219,548.644 L219,579.644 L1141,579.644 L1141,558.644 L1131,548.644 L219,548.644 " fill="#FEFFDD" style="stroke:#181818;stroke-width:0.5;"/><path d="M1131,548.644 L1131,558.644 L1141,558.644 L1131,548.644 " fill="#FEFFDD" style="stroke:#181818;stroke-width:0.5;"/><text fill="#000000" font-family="sans-serif" font-size="13" lengthAdjust="spacing" textLength="121" x="615.25" y="568.9966">(some interactions)</text><polygon fill="#181818" points="280.5,641.897,270.5,645.897,280.5,649.897,276.5,645.897" style="stroke:#181818;stroke-width:1.0;"/><line style="stroke:#181818;stroke-width:1.0;" x1="274.5" x2="1096" y1="645.897" y2="645.897"/><text fill="#000000" font-family="sans-serif" font-size="13" lengthAdjust="spacing" textLength="333" x="289.5" y="638.123">302 - To redirect to IAM Identity Center (SSO) Sign in</text><polygon fill="#181818" points="1245.5,677.0234,1255.5,681.0234,1245.5,685.0234,1249.5,681.0234" style="stroke:#181818;stroke-width:1.0;"/><line style="stroke:#181818;stroke-width:1.0;" x1="269.5" x2="1251.5" y1="681.0234" y2="681.0234"/><text fill="#000000" font-family="sans-serif" font-size="13" lengthAdjust="spacing" textLength="365" x="279.5" y="673.2495">Redirect to SSO Sing in (GET https://&lt;region&gt;.signin.aws)</text><polygon fill="#181818" points="275.5,712.1499,265.5,716.1499,275.5,720.1499,271.5,716.1499" style="stroke:#181818;stroke-width:1.0;"/><line style="stroke:#181818;stroke-width:1.0;" x1="269.5" x2="1261.5" y1="716.1499" y2="716.1499"/><text fill="#000000" font-family="sans-serif" font-size="13" lengthAdjust="spacing" textLength="122" x="284.5" y="708.376">Return sign in form</text><polygon fill="#181818" points="247.5,762.4028,257.5,766.4028,247.5,770.4028,251.5,766.4028" style="stroke:#181818;stroke-width:1.0;"/><line style="stroke:#181818;stroke-width:1.0;" x1="41.5" x2="253.5" y1="766.4028" y2="766.4028"/><text fill="#000000" font-family="sans-serif" font-size="13" lengthAdjust="spacing" textLength="189" x="51.5" y="743.5024">Input username and password</text><text fill="#000000" font-family="sans-serif" font-size="13" lengthAdjust="spacing" textLength="152" x="55.5" y="758.6289">(and optionally MFA Pin)</text><polygon fill="#181818" points="1245.5,797.5293,1255.5,801.5293,1245.5,805.5293,1249.5,801.5293" style="stroke:#181818;stroke-width:1.0;"/><line style="stroke:#181818;stroke-width:1.0;" x1="269.5" x2="1251.5" y1="801.5293" y2="801.5293"/><text fill="#000000" font-family="sans-serif" font-size="13" lengthAdjust="spacing" textLength="87" x="279.5" y="793.7554">Sign in (POST)</text><path d="M189,848.5293 L189,879.5293 L1337,879.5293 L1337,858.5293 L1327,848.5293 L189,848.5293 " fill="#FEFFDD" style="stroke:#181818;stroke-width:0.5;"/><path d="M1327,848.5293 L1327,858.5293 L1337,858.5293 L1327,848.5293 " fill="#FEFFDD" style="stroke:#181818;stroke-width:0.5;"/><text fill="#000000" font-family="sans-serif" font-size="13" lengthAdjust="spacing" textLength="121" x="698.25" y="868.8818">(some interactions)</text><polygon fill="#181818" points="280.5,941.7822,270.5,945.7822,280.5,949.7822,276.5,945.7822" style="stroke:#181818;stroke-width:1.0;"/><line style="stroke:#181818;stroke-width:1.0;" x1="274.5" x2="1261.5" y1="945.7822" y2="945.7822"/><text fill="#000000" font-family="sans-serif" font-size="13" lengthAdjust="spacing" textLength="365" x="289.5" y="938.0083">302 - To redirect to Web-App (Callback) with "Auth Code"</text><polygon fill="#181818" points="585.5,992.0352,595.5,996.0352,585.5,1000.0352,589.5,996.0352" style="stroke:#181818;stroke-width:1.0;"/><line style="stroke:#181818;stroke-width:1.0;" x1="269.5" x2="591.5" y1="996.0352" y2="996.0352"/><text fill="#000000" font-family="sans-serif" font-size="13" lengthAdjust="spacing" textLength="199" x="279.5" y="973.1348">Redirect to Callback with nonce</text><text fill="#000000" font-family="sans-serif" font-size="13" lengthAdjust="spacing" textLength="255" x="283.5" y="988.2612">(GET https://&lt;web-app&gt;/auth?code=...)</text><polygon fill="#181818" points="729,1027.1616,739,1031.1616,729,1035.1616,733,1031.1616" style="stroke:#181818;stroke-width:1.0;"/><line style="stroke:#181818;stroke-width:1.0;" x1="597.5" x2="735" y1="1031.1616" y2="1031.1616"/><text fill="#000000" font-family="sans-serif" font-size="13" lengthAdjust="spacing" textLength="96" x="607.5" y="1023.3877">Viewer Request</text><line style="stroke:#181818;stroke-width:1.0;" x1="751" x2="793" y1="1066.2881" y2="1066.2881"/><line style="stroke:#181818;stroke-width:1.0;" x1="793" x2="793" y1="1066.2881" y2="1079.2881"/><line style="stroke:#181818;stroke-width:1.0;" x1="752" x2="793" y1="1079.2881" y2="1079.2881"/><polygon fill="#181818" points="762,1075.2881,752,1079.2881,762,1083.2881,758,1079.2881" style="stroke:#181818;stroke-width:1.0;"/><text fill="#000000" font-family="sans-serif" font-size="13" lengthAdjust="spacing" textLength="217" x="761" y="1058.5142">Parse Auth Code from query string</text><polygon fill="#181818" points="1080,1125.541,1090,1129.541,1080,1133.541,1084,1129.541" style="stroke:#181818;stroke-width:1.0;"/><line style="stroke:#181818;stroke-width:1.0;" x1="751" x2="1086" y1="1129.541" y2="1129.541"/><text fill="#000000" font-family="sans-serif" font-size="13" lengthAdjust="spacing" textLength="240" x="761" y="1106.6406">Authorize via Cognito Token Endpoint</text><text fill="#000000" font-family="sans-serif" font-size="13" lengthAdjust="spacing" textLength="312" x="765" y="1121.7671">(POST https://&lt;Cognito Domain&gt;/oauth2/token)</text><polygon fill="#181818" points="762,1160.6675,752,1164.6675,762,1168.6675,758,1164.6675" style="stroke:#181818;stroke-width:1.0;"/><line style="stroke:#181818;stroke-width:1.0;" x1="756" x2="1096" y1="1164.6675" y2="1164.6675"/><text fill="#000000" font-family="sans-serif" font-size="13" lengthAdjust="spacing" textLength="240" x="771" y="1156.8936">Return ID, Access, and Refresh tokens</text><line style="stroke:#181818;stroke-width:1.0;" x1="751" x2="793" y1="1199.7939" y2="1199.7939"/><line style="stroke:#181818;stroke-width:1.0;" x1="793" x2="793" y1="1199.7939" y2="1212.7939"/><line style="stroke:#181818;stroke-width:1.0;" x1="752" x2="793" y1="1212.7939" y2="1212.7939"/><polygon fill="#181818" points="762,1208.7939,752,1212.7939,762,1216.7939,758,1212.7939" style="stroke:#181818;stroke-width:1.0;"/><text fill="#000000" font-family="sans-serif" font-size="13" lengthAdjust="spacing" textLength="93" x="761" y="1192.02">Validate nonce</text><polygon fill="#181818" points="280.5,1243.9204,270.5,1247.9204,280.5,1251.9204,276.5,1247.9204" style="stroke:#181818;stroke-width:1.0;"/><line style="stroke:#181818;stroke-width:1.0;" x1="274.5" x2="745" y1="1247.9204" y2="1247.9204"/><text fill="#000000" font-family="sans-serif" font-size="13" lengthAdjust="spacing" textLength="188" x="289.5" y="1240.1465">307 - To redirect to Web-App</text><line style="stroke:#181818;stroke-width:1.0;" x1="269.5" x2="311.5" y1="1283.0469" y2="1283.0469"/><line style="stroke:#181818;stroke-width:1.0;" x1="311.5" x2="311.5" y1="1283.0469" y2="1296.0469"/><line style="stroke:#181818;stroke-width:1.0;" x1="270.5" x2="311.5" y1="1296.0469" y2="1296.0469"/><polygon fill="#181818" points="280.5,1292.0469,270.5,1296.0469,280.5,1300.0469,276.5,1296.0469" style="stroke:#181818;stroke-width:1.0;"/><text fill="#000000" font-family="sans-serif" font-size="13" lengthAdjust="spacing" textLength="280" x="279.5" y="1275.2729">Set ID, Access, and Refresh tokens in cookie</text><polygon fill="#181818" points="585.5,1327.1733,595.5,1331.1733,585.5,1335.1733,589.5,1331.1733" style="stroke:#181818;stroke-width:1.0;"/><line style="stroke:#181818;stroke-width:1.0;" x1="264.5" x2="591.5" y1="1331.1733" y2="1331.1733"/><text fill="#000000" font-family="sans-serif" font-size="13" lengthAdjust="spacing" textLength="298" x="274.5" y="1323.3994">Redirect to Web-App (GET https://&lt;web-app&gt;)</text><line style="stroke:#000000;stroke-width:1.0;stroke-dasharray:2.0,2.0;" x1="10" x2="1483.5" y1="1340.1733" y2="1340.1733"/><text fill="#000000" font-family="sans-serif" font-size="11" font-weight="bold" lengthAdjust="spacing" textLength="103" x="18" y="1353.6523">[Valid "ID Token"]</text><polygon fill="#181818" points="608.5,1383.0991,598.5,1387.0991,608.5,1391.0991,604.5,1387.0991" style="stroke:#181818;stroke-width:1.0;"/><line style="stroke:#181818;stroke-width:1.0;" x1="602.5" x2="740" y1="1387.0991" y2="1387.0991"/><text fill="#000000" font-family="sans-serif" font-size="13" lengthAdjust="spacing" textLength="111" x="617.5" y="1379.3252">Pass thue request</text><polygon fill="#181818" points="1410,1418.2256,1420,1422.2256,1410,1426.2256,1414,1422.2256" style="stroke:#181818;stroke-width:1.0;"/><line style="stroke:#181818;stroke-width:1.0;" x1="597.5" x2="1416" y1="1422.2256" y2="1422.2256"/><text fill="#000000" font-family="sans-serif" font-size="13" lengthAdjust="spacing" textLength="93" x="607.5" y="1414.4517">Origin Request</text><polygon fill="#181818" points="275.5,1453.3521,265.5,1457.3521,275.5,1461.3521,271.5,1457.3521" style="stroke:#181818;stroke-width:1.0;"/><line style="stroke:#181818;stroke-width:1.0;" x1="269.5" x2="1426" y1="1457.3521" y2="1457.3521"/><text fill="#000000" font-family="sans-serif" font-size="13" lengthAdjust="spacing" textLength="93" x="284.5" y="1449.5781">Return content</text></g></svg>